#!OML:ASF F:\VICON\USERDATA\INSTALL\Justin_Nancy\Justin_Nancy.ASF
:FULLY-SPECIFIED
:DEGREES
82
root -0.881144 16.6189 5.70246 -6.81879 -45.9863 15.1934
lowerback 13.7628 -0.176329 -3.41842
upperback -0.335888 -0.713192 1.06918
thorax -8.04752 -0.185522 3.22563
lowerneck -18.3086 -4.72442 -12.308
upperneck 17.9597 -4.17196 4.92206
head 9.03714 -2.29331 3.14661
rclavicle 1.27222e-014 1.43125e-014
rhumerus -50.3872 6.73558 -92.6838
rradius 105.567
rwrist -14.8752
rhand -15.9706 23.5715
rfingers 7.12502
rthumb 10.2285 -6.15984
lclavicle 1.27222e-014 1.43125e-014
lhumerus -51.7092 -0.342806 89.2495
lradius 105.033
lwrist 28.26
lhand -13.6766 9.6069
lfingers 7.12502
lthumb 12.4409 39.2166
rfemur -26.1373 -2.97291 29.5525
rtibia 42.2405
rfoot -16.7212 -12.0798
rtoes 27.2166
lfemur -6.27069 0.423943 -18.7016
ltibia 75.2035
lfoot 15.1184 -9.20668
ltoes -8.01199
83
root -1.11626 16.5518 5.99989 -5.87942 -45.9044 13.7759
lowerback 13.9282 -0.329283 -2.58923
upperback -0.218645 -0.762692 1.36649
thorax -8.01561 -0.239915 3.08476
lowerneck -18.6955 -4.80212 -12.1859
upperneck 17.976 -4.26857 4.96699
head 9.11799 -2.31946 3.12528
rclavicle 1.55052e-014 4.77083e-015
rhumerus -47.3066 5.59046 -92.8317
rradius 104.064
rwrist -13.5875
rhand -14.6574 23.535
rfingers 7.12502
rthumb 11.4952 -6.12977
lclavicle 1.55052e-014 4.77083e-015
lhumerus -51.9799 0.106165 89.0891
lradius 104.435
lwrist 28.5004
lhand -13.5781 10.0533
lfingers 7.12502
lthumb 12.5359 39.6573
rfemur -24.8801 -2.86459 30.4582
rtibia 42.8367
rfoot -17.9834 -13.3858
rtoes 24.356
lfemur -9.04056 0.770606 -16.9526
ltibia 77.9664
lfoot 13.8002 -8.63974
ltoes -4.57407
84
root -1.36103 16.5257 6.29601 -5.14702 -45.9759 12.796
lowerback 13.9438 -0.307494 -2.02613
upperback -0.164544 -0.622077 1.62963
thorax -7.97855 -0.190821 3.01751
lowerneck -18.8498 -4.90492 -12.2603
upperneck 17.867 -4.37494 5.01714
head 9.12063 -2.36357 3.1371
rclavicle 6.40087e-014 -2.06736e-014
rhumerus -47.1595 7.02382 -92.7196
rradius 104.701
rwrist -13.2683
rhand -15.2228 23.6964
rfingers 7.12502
rthumb 10.9499 -5.9981
lclavicle 6.40087e-014 -2.06736e-014
lhumerus -52.1487 0.426455 89.1532
lradius 103.83
lwrist 28.272
lhand -13.9687 10.7614
lfingers 7.12502
lthumb 12.1593 40.388
rfemur -23.6381 -2.68578 30.9581
rtibia 43.4002
rfoot -19.5791 -13.8793
rtoes 24.1724
lfemur -11.7397 1.41081 -15.6436
ltibia 80.2395
lfoot 12.4297 -8.38794
ltoes -6.28015
85
root -1.58528 16.481 6.58475 -4.65969 -45.9475 12.1412
lowerback 14.1511 -0.185445 -1.67475
upperback -0.166496 -0.39416 1.76983
thorax -8.11433 -0.0897594 2.92507
lowerneck -18.9459 -5.07918 -12.1736
upperneck 17.8266 -4.64069 5.08594
head 9.14743 -2.47125 3.10801
rclavicle -5.88403e-014 1.74931e-014
rhumerus -46.6281 7.63842 -92.6282
rradius 105.414
rwrist -13.1282
rhand -15.5455 23.8997
rfingers 7.12502
rthumb 10.6385 -5.81104
lclavicle -5.88403e-014 1.74931e-014
lhumerus -52.2634 0.371538 89.21
lradius 103.328
lwrist 27.747
lhand -13.4928 11.7089
lfingers 7.12502
lthumb 12.6181 41.3078
rfemur -22.5712 -2.71165 31.237
rtibia 44.0149
rfoot -20.835 -14.295
rtoes 22.784
lfemur -14.5588 2.05398 -14.7719
ltibia 82.3315
lfoot 10.812 -8.20248
ltoes -9.08605
86
root -1.79736 16.4184 6.87646 -4.45701 -45.8918 11.7466
lowerback 14.4732 -0.0193891 -1.47696
upperback -0.191892 -0.138119 1.83482
thorax -8.34057 0.0306858 2.83393
lowerneck -19.0825 -5.23293 -12.0571
upperneck 17.912 -4.87898 5.12553
head 9.22099 -2.56945 3.06789
rclavicle -1.94809e-014 1.59028e-015
rhumerus -45.8618 7.73131 -92.5935
rradius 105.984
rwrist -12.6093
rhand -15.3171 24.3878
rfingers 7.12502
rthumb 10.8589 -5.31148
lclavicle -1.94809e-014 1.59028e-015
lhumerus -52.6686 0.26866 89.3277
lradius 103.23
lwrist 26.8927
lhand -12.2953 12.7139
lfingers 7.12502
lthumb 13.7724 42.238
rfemur -21.3969 -2.819 31.317
rtibia 44.4762
rfoot -21.5934 -14.8315
rtoes 19.9634
lfemur -17.4255 2.58636 -14.3284
ltibia 84.1594
lfoot 9.13229 -7.67977
ltoes -11.36
87
root -2.03198 16.4028 7.17501 -4.1787 -45.8252 11.2654
lowerback 14.5759 0.136167 -1.1621
upperback -0.149279 0.125929 1.90445
thorax -8.36769 0.145967 2.67378
lowerneck -19.1462 -5.40478 -11.8839
upperneck 17.8483 -5.11661 4.94789
head 9.22242 -2.68487 2.94176
rclavicle -6.63941e-014 6.36111e-015
rhumerus -44.9772 7.71057 -92.4743
rradius 106.694
rwrist -11.985
rhand -14.8479 24.5388
rfingers 7.12502
rthumb 11.3114 -5.13617
lclavicle -6.63941e-014 6.36111e-015
lhumerus -52.9992 0.238202 89.5306
lradius 103.297
lwrist 25.8123
lhand -11.6011 12.6871
lfingers 7.12502
lthumb 14.4413 42.1646
rfemur -19.8824 -2.96688 31.3565
rtibia 44.6186
rfoot -22.6865 -14.6166
rtoes 20.4014
lfemur -20.0706 2.95156 -13.9035
ltibia 85.4209
lfoot 7.64207 -7.13956
ltoes -11.9623
88
root -2.29417 16.4371 7.47233 -3.66721 -45.6224 10.6871
lowerback 14.2903 0.232856 -0.824414
upperback -0.0757468 0.319743 2.02709
thorax -8.13596 0.224749 2.56864
lowerneck -19.17 -5.57638 -11.873
upperneck 17.8805 -5.32373 4.80801
head 9.25295 -2.79597 2.86025
rclavicle 3.06128e-014 -7.95139e-015
rhumerus -44.1852 7.88255 -92.3494
rradius 107.626
rwrist -11.9688
rhand -14.7489 24.7341
rfingers 7.12502
rthumb 11.4069 -4.93561
lclavicle 3.06128e-014 -7.95139e-015
lhumerus -53.1584 0.0896402 89.8735
lradius 103.537
lwrist 25.1485
lhand -11.6669 12.422
lfingers 7.12502
lthumb 14.378 41.904
rfemur -18.1822 -3.24968 31.4563
rtibia 44.3063
rfoot -23.4859 -14.3448
rtoes 20.0433
lfemur -22.6865 3.01774 -13.4256
ltibia 86.0805
lfoot 6.49633 -6.64619
ltoes -10.5245
89
root -2.55493 16.4589 7.76513 -3.08453 -45.363 10.2053
lowerback 13.9143 0.288828 -0.652159
upperback -0.139131 0.434932 2.17775
thorax -7.99777 0.276253 2.60613
lowerneck -19.3348 -5.71187 -11.7773
upperneck 18.1686 -5.45616 4.49654
head 9.38362 -2.88887 2.7143
rclavicle -4.77083e-014 -3.49861e-014
rhumerus -43.6031 8.29628 -92.2935
rradius 108.547
rwrist -12.1974
rhand -14.7826 25.0366
rfingers 7.12502
rthumb 11.3744 -4.63494
lclavicle -4.77083e-014 -3.49861e-014
lhumerus -53.4287 -0.129407 90.1539
lradius 103.844
lwrist 25.5232
lhand -11.0467 12.6778
lfingers 7.12502
lthumb 14.9755 42.1163
rfemur -16.551 -3.5437 31.54
rtibia 43.7238
rfoot -23.5406 -14.4215
rtoes 16.8134
lfemur -25.5263 2.96995 -13.1298
ltibia 86.4234
lfoot 5.39237 -6.00801
ltoes -8.55255
90
root -2.81399 16.4852 8.05865 -2.54665 -45.2799 9.74622
lowerback 13.6088 0.391874 -0.418781
upperback -0.270631 0.615451 2.23158
thorax -7.9739 0.356779 2.49374
lowerneck -18.6524 -5.78995 -11.9946
upperneck 17.6058 -5.65785 4.85672
head 9.10148 -2.95693 2.85488
rclavicle 5.40694e-014 3.18055e-015
rhumerus -43.2108 8.64775 -92.3969
rradius 109.607
rwrist -12.4599
rhand -14.7271 25.013
rfingers 7.12502
rthumb 11.4279 -4.65556
lclavicle 5.40694e-014 3.18055e-015
lhumerus -53.8196 -0.443045 90.3412
lradius 104.099
lwrist 26.6724
lhand -10.2932 12.592
lfingers 7.12502
lthumb 15.7012 41.975
rfemur -14.9122 -3.73259 31.5991
rtibia 43.0875
rfoot -23.1743 -14.4178
rtoes 13.4418
lfemur -28.0229 3.30856 -13.0311
ltibia 86.2998
lfoot 3.91448 -5.52675
ltoes -8.82452
91
root -3.07798 16.5161 8.38629 -2.18736 -45.7652 9.1421
lowerback 13.2086 0.722724 0.119796
upperback -0.251387 1.13592 2.24528
thorax -7.74035 0.586303 2.09826
lowerneck -18.3424 -5.95898 -12.2304
upperneck 17.6435 -5.95586 5.2517
head 9.10684 -3.07535 2.99273
rclavicle -2.50469e-014 1.59028e-015
rhumerus -42.9851 8.87525 -92.4059
rradius 110.862
rwrist -12.7493
rhand -14.6487 25.0491
rfingers 7.12502
rthumb 11.5036 -4.61521
lclavicle -2.50469e-014 1.59028e-015
lhumerus -54.2705 -0.679911 90.5067
lradius 104.769
lwrist 26.5557
lhand -9.55457 14.2482
lfingers 7.12502
lthumb 16.4125 43.5738
rfemur -12.8297 -3.38495 31.6314
rtibia 42.4366
rfoot -22.4844 -13.9953
rtoes 9.66043
lfemur -29.6142 4.3173 -13.0197
ltibia 85.6521
lfoot 2.08625 -5.08145
ltoes -12.4764
92
root -3.33291 16.5426 8.68387 -1.83824 -45.6394 8.48391
lowerback 13.3177 0.905424 0.342243
upperback -0.389265 1.43551 2.46775
thorax -7.96301 0.728532 2.15001
lowerneck -18.1691 -6.13796 -12.4815
upperneck 17.9459 -6.18189 5.3066
head 9.21386 -3.20123 3.02303
rclavicle -2.44505e-014 -1.74931e-014
rhumerus -42.8115 9.19259 -92.2292
rradius 111.918
rwrist -12.9812
rhand -14.6569 25.2977
rfingers 7.12502
rthumb 11.4957 -4.36711
lclavicle -2.44505e-014 -1.74931e-014
lhumerus -54.9396 -0.810941 91.0389
lradius 105.341
lwrist 26.7379
lhand -10.5191 12.8796
lfingers 7.12502
lthumb 15.4837 42.2796
rfemur -10.7523 -3.17862 31.817
rtibia 41.7107
rfoot -21.8254 -13.3899
rtoes 7.40403
lfemur -31.3527 4.6825 -12.9351
ltibia 84.6619
lfoot 0.547885 -4.61281
ltoes -19.9286
